<svg width="360" height="85" viewBox="0 0 360 85" fill="none" xmlns="http://www.w3.org/2000/svg">
<g clip-path="url(#clip0)">
<rect x="2.5" y="2.5" width="355" height="80" fill="white"/>
<rect x="0.5" y="0.5" width="500" height="172" fill="#FFFDFD" stroke="black"/>
<g filter="url(#filter0_d)">
<path d="M34.41 58.315C32.34 58.315 30.48 57.955 28.83 57.235C27.21 56.485 25.935 55.465 25.005 54.175C24.075 52.855 23.595 51.34 23.565 49.63H27.93C28.08 51.1 28.68 52.345 29.73 53.365C30.81 54.355 32.37 54.85 34.41 54.85C36.36 54.85 37.89 54.37 39 53.41C40.14 52.42 40.71 51.16 40.71 49.63C40.71 48.43 40.38 47.455 39.72 46.705C39.06 45.955 38.235 45.385 37.245 44.995C36.255 44.605 34.92 44.185 33.24 43.735C31.17 43.195 29.505 42.655 28.245 42.115C27.015 41.575 25.95 40.735 25.05 39.595C24.18 38.425 23.745 36.865 23.745 34.915C23.745 33.205 24.18 31.69 25.05 30.37C25.92 29.05 27.135 28.03 28.695 27.31C30.285 26.59 32.1 26.23 34.14 26.23C37.08 26.23 39.48 26.965 41.34 28.435C43.23 29.905 44.295 31.855 44.535 34.285H40.035C39.885 33.085 39.255 32.035 38.145 31.135C37.035 30.205 35.565 29.74 33.735 29.74C32.025 29.74 30.63 30.19 29.55 31.09C28.47 31.96 27.93 33.19 27.93 34.78C27.93 35.92 28.245 36.85 28.875 37.57C29.535 38.29 30.33 38.845 31.26 39.235C32.22 39.595 33.555 40.015 35.265 40.495C37.335 41.065 39 41.635 40.26 42.205C41.52 42.745 42.6 43.6 43.5 44.77C44.4 45.91 44.85 47.47 44.85 49.45C44.85 50.98 44.445 52.42 43.635 53.77C42.825 55.12 41.625 56.215 40.035 57.055C38.445 57.895 36.57 58.315 34.41 58.315ZM75.0411 26.635V58H70.9461V43.78H54.9711V58H50.8761V26.635H54.9711V40.405H70.9461V26.635H75.0411ZM96.2534 58.315C93.3434 58.315 90.6884 57.64 88.2884 56.29C85.8884 54.91 83.9834 53.005 82.5734 50.575C81.1934 48.115 80.5034 45.355 80.5034 42.295C80.5034 39.235 81.1934 36.49 82.5734 34.06C83.9834 31.6 85.8884 29.695 88.2884 28.345C90.6884 26.965 93.3434 26.275 96.2534 26.275C99.1934 26.275 101.863 26.965 104.263 28.345C106.663 29.695 108.553 31.585 109.933 34.015C111.313 36.445 112.003 39.205 112.003 42.295C112.003 45.385 111.313 48.145 109.933 50.575C108.553 53.005 106.663 54.91 104.263 56.29C101.863 57.64 99.1934 58.315 96.2534 58.315ZM96.2534 54.76C98.4434 54.76 100.408 54.25 102.148 53.23C103.918 52.21 105.298 50.755 106.288 48.865C107.308 46.975 107.818 44.785 107.818 42.295C107.818 39.775 107.308 37.585 106.288 35.725C105.298 33.835 103.933 32.38 102.193 31.36C100.453 30.34 98.4734 29.83 96.2534 29.83C94.0334 29.83 92.0534 30.34 90.3134 31.36C88.5734 32.38 87.1934 33.835 86.1734 35.725C85.1834 37.585 84.6884 39.775 84.6884 42.295C84.6884 44.785 85.1834 46.975 86.1734 48.865C87.1934 50.755 88.5734 52.21 90.3134 53.23C92.0834 54.25 94.0634 54.76 96.2534 54.76ZM138.379 35.815C138.379 38.425 137.479 40.6 135.679 42.34C133.909 44.05 131.194 44.905 127.534 44.905H121.504V58H117.409V26.635H127.534C131.074 26.635 133.759 27.49 135.589 29.2C137.449 30.91 138.379 33.115 138.379 35.815ZM127.534 41.53C129.814 41.53 131.494 41.035 132.574 40.045C133.654 39.055 134.194 37.645 134.194 35.815C134.194 31.945 131.974 30.01 127.534 30.01H121.504V41.53H127.534ZM165.969 44.725C165.969 45.505 165.924 46.33 165.834 47.2H146.124C146.274 49.63 147.099 51.535 148.599 52.915C150.129 54.265 151.974 54.94 154.134 54.94C155.904 54.94 157.374 54.535 158.544 53.725C159.744 52.885 160.584 51.775 161.064 50.395H165.474C164.814 52.765 163.494 54.7 161.514 56.2C159.534 57.67 157.074 58.405 154.134 58.405C151.794 58.405 149.694 57.88 147.834 56.83C146.004 55.78 144.564 54.295 143.514 52.375C142.464 50.425 141.939 48.175 141.939 45.625C141.939 43.075 142.449 40.84 143.469 38.92C144.489 37 145.914 35.53 147.744 34.51C149.604 33.46 151.734 32.935 154.134 32.935C156.474 32.935 158.544 33.445 160.344 34.465C162.144 35.485 163.524 36.895 164.484 38.695C165.474 40.465 165.969 42.475 165.969 44.725ZM161.739 43.87C161.739 42.31 161.394 40.975 160.704 39.865C160.014 38.725 159.069 37.87 157.869 37.3C156.699 36.7 155.394 36.4 153.954 36.4C151.884 36.4 150.114 37.06 148.644 38.38C147.204 39.7 146.379 41.53 146.169 43.87H161.739ZM193.874 44.725C193.874 45.505 193.829 46.33 193.739 47.2H174.029C174.179 49.63 175.004 51.535 176.504 52.915C178.034 54.265 179.879 54.94 182.039 54.94C183.809 54.94 185.279 54.535 186.449 53.725C187.649 52.885 188.489 51.775 188.969 50.395H193.379C192.719 52.765 191.399 54.7 189.419 56.2C187.439 57.67 184.979 58.405 182.039 58.405C179.699 58.405 177.599 57.88 175.739 56.83C173.909 55.78 172.469 54.295 171.419 52.375C170.369 50.425 169.844 48.175 169.844 45.625C169.844 43.075 170.354 40.84 171.374 38.92C172.394 37 173.819 35.53 175.649 34.51C177.509 33.46 179.639 32.935 182.039 32.935C184.379 32.935 186.449 33.445 188.249 34.465C190.049 35.485 191.429 36.895 192.389 38.695C193.379 40.465 193.874 42.475 193.874 44.725ZM189.644 43.87C189.644 42.31 189.299 40.975 188.609 39.865C187.919 38.725 186.974 37.87 185.774 37.3C184.604 36.7 183.299 36.4 181.859 36.4C179.789 36.4 178.019 37.06 176.549 38.38C175.109 39.7 174.284 41.53 174.074 43.87H189.644Z" fill="#CF0000"/>
</g>
<g filter="url(#filter1_d)">
<path d="M217.41 58.315C215.34 58.315 213.48 57.955 211.83 57.235C210.21 56.485 208.935 55.465 208.005 54.175C207.075 52.855 206.595 51.34 206.565 49.63H210.93C211.08 51.1 211.68 52.345 212.73 53.365C213.81 54.355 215.37 54.85 217.41 54.85C219.36 54.85 220.89 54.37 222 53.41C223.14 52.42 223.71 51.16 223.71 49.63C223.71 48.43 223.38 47.455 222.72 46.705C222.06 45.955 221.235 45.385 220.245 44.995C219.255 44.605 217.92 44.185 216.24 43.735C214.17 43.195 212.505 42.655 211.245 42.115C210.015 41.575 208.95 40.735 208.05 39.595C207.18 38.425 206.745 36.865 206.745 34.915C206.745 33.205 207.18 31.69 208.05 30.37C208.92 29.05 210.135 28.03 211.695 27.31C213.285 26.59 215.1 26.23 217.14 26.23C220.08 26.23 222.48 26.965 224.34 28.435C226.23 29.905 227.295 31.855 227.535 34.285H223.035C222.885 33.085 222.255 32.035 221.145 31.135C220.035 30.205 218.565 29.74 216.735 29.74C215.025 29.74 213.63 30.19 212.55 31.09C211.47 31.96 210.93 33.19 210.93 34.78C210.93 35.92 211.245 36.85 211.875 37.57C212.535 38.29 213.33 38.845 214.26 39.235C215.22 39.595 216.555 40.015 218.265 40.495C220.335 41.065 222 41.635 223.26 42.205C224.52 42.745 225.6 43.6 226.5 44.77C227.4 45.91 227.85 47.47 227.85 49.45C227.85 50.98 227.445 52.42 226.635 53.77C225.825 55.12 224.625 56.215 223.035 57.055C221.445 57.895 219.57 58.315 217.41 58.315ZM253.181 26.635V29.965H244.631V58H240.536V29.965H231.941V26.635H253.181ZM272.442 58.315C269.532 58.315 266.877 57.64 264.477 56.29C262.077 54.91 260.172 53.005 258.762 50.575C257.382 48.115 256.692 45.355 256.692 42.295C256.692 39.235 257.382 36.49 258.762 34.06C260.172 31.6 262.077 29.695 264.477 28.345C266.877 26.965 269.532 26.275 272.442 26.275C275.382 26.275 278.052 26.965 280.452 28.345C282.852 29.695 284.742 31.585 286.122 34.015C287.502 36.445 288.192 39.205 288.192 42.295C288.192 45.385 287.502 48.145 286.122 50.575C284.742 53.005 282.852 54.91 280.452 56.29C278.052 57.64 275.382 58.315 272.442 58.315ZM272.442 54.76C274.632 54.76 276.597 54.25 278.337 53.23C280.107 52.21 281.487 50.755 282.477 48.865C283.497 46.975 284.007 44.785 284.007 42.295C284.007 39.775 283.497 37.585 282.477 35.725C281.487 33.835 280.122 32.38 278.382 31.36C276.642 30.34 274.662 29.83 272.442 29.83C270.222 29.83 268.242 30.34 266.502 31.36C264.762 32.38 263.382 33.835 262.362 35.725C261.372 37.585 260.877 39.775 260.877 42.295C260.877 44.785 261.372 46.975 262.362 48.865C263.382 50.755 264.762 52.21 266.502 53.23C268.272 54.25 270.252 54.76 272.442 54.76ZM310.113 58L302.643 45.175H297.693V58H293.598V26.635H303.723C306.093 26.635 308.088 27.04 309.708 27.85C311.358 28.66 312.588 29.755 313.398 31.135C314.208 32.515 314.613 34.09 314.613 35.86C314.613 38.02 313.983 39.925 312.723 41.575C311.493 43.225 309.633 44.32 307.143 44.86L315.018 58H310.113ZM297.693 41.89H303.723C305.943 41.89 307.608 41.35 308.718 40.27C309.828 39.16 310.383 37.69 310.383 35.86C310.383 34 309.828 32.56 308.718 31.54C307.638 30.52 305.973 30.01 303.723 30.01H297.693V41.89ZM325.071 29.965V40.45H336.501V43.825H325.071V54.625H337.851V58H320.976V26.59H337.851V29.965H325.071Z" fill="#170101"/>
</g>
</g>
<rect x="2.5" y="2.5" width="355" height="80" stroke="black" stroke-width="5"/>
<defs>
<filter id="filter0_d" x="15.565" y="22.23" width="186.309" height="48.175" filterUnits="userSpaceOnUse" color-interpolation-filters="sRGB">
<feFlood flood-opacity="0" result="BackgroundImageFix"/>
<feColorMatrix in="SourceAlpha" type="matrix" values="0 0 0 0 0 0 0 0 0 0 0 0 0 0 0 0 0 0 127 0"/>
<feOffset dy="4"/>
<feGaussianBlur stdDeviation="4"/>
<feColorMatrix type="matrix" values="0 0 0 0 0.0458333 0 0 0 0 0.0437326 0 0 0 0 0.0437326 0 0 0 0.5 0"/>
<feBlend mode="normal" in2="BackgroundImageFix" result="effect1_dropShadow"/>
<feBlend mode="normal" in="SourceGraphic" in2="effect1_dropShadow" result="shape"/>
</filter>
<filter id="filter1_d" x="202.565" y="26.23" width="139.286" height="40.085" filterUnits="userSpaceOnUse" color-interpolation-filters="sRGB">
<feFlood flood-opacity="0" result="BackgroundImageFix"/>
<feColorMatrix in="SourceAlpha" type="matrix" values="0 0 0 0 0 0 0 0 0 0 0 0 0 0 0 0 0 0 127 0"/>
<feOffset dy="4"/>
<feGaussianBlur stdDeviation="2"/>
<feColorMatrix type="matrix" values="0 0 0 0 0 0 0 0 0 0 0 0 0 0 0 0 0 0 0.5 0"/>
<feBlend mode="normal" in2="BackgroundImageFix" result="effect1_dropShadow"/>
<feBlend mode="normal" in="SourceGraphic" in2="effect1_dropShadow" result="shape"/>
</filter>
<clipPath id="clip0">
</clipPath>
</defs>
</svg>
